HIERARCHY
ROOT pelvis
{
  OFFSET 0 100 0
  CHANNELS 6 Xposition Yposition Zposition Zrotation Xrotation Yrotation
  JOINT pelvis_right_femur
  {
    OFFSET -10.78128 -3.44521 -0.5502486
    CHANNELS 3 Zrotation Xrotation Yrotation
    JOINT right_femur_tibia
    {
      OFFSET -0.8047443 -44.0398 -0.1307829
      CHANNELS 3 Zrotation Xrotation Yrotation
      JOINT right_tibia_foot
      {
        OFFSET 3.006224 -47.83518 -5
        CHANNELS 3 Zrotation Xrotation Yrotation
        End Site
        {
          OFFSET 0 -5 15
        }
      }
    }
  }
  JOINT pelvis_left_femur
  {
    OFFSET 10.78128 -3.44521 -0.5502486
    CHANNELS 3 Zrotation Xrotation Yrotation
    JOINT left_femur_tibia
    {
      OFFSET 0.8047443 -44.0398 -0.1307829
      CHANNELS 3 Zrotation Xrotation Yrotation
      JOINT left_tibia_foot
      {
        OFFSET -4.370144 -48.10324 -4.275266
        CHANNELS 3 Zrotation Xrotation Yrotation
        End Site
        {
          OFFSET 0 -5 15
        }
      }
    }
  }
  JOINT pelvis_spine1
  {
    OFFSET 0 6.468898 -3.129235
    CHANNELS 3 Zrotation Xrotation Yrotation
    JOINT spine1
    {
      OFFSET 0 23.15396 4.99043
      CHANNELS 3 Zrotation Xrotation Yrotation
      JOINT spine2
      {
        OFFSET 0 20.79997 -5.064912
        CHANNELS 3 Zrotation Xrotation Yrotation
        JOINT neck
        {
          OFFSET 0 14.38658 9.616178
          CHANNELS 3 Zrotation Xrotation Yrotation
          End Site
          {
            OFFSET 0 20 0
          }
        }
      }
      JOINT right_manubrium
      {
        OFFSET -5.722621 16.35077 3.967754
        CHANNELS 3 Zrotation Xrotation Yrotation
        JOINT right_clavicle
        {
          OFFSET -13.16364 1.694482 -4.693211
          CHANNELS 3 Zrotation Xrotation Yrotation
          JOINT right_humerus
          {
            OFFSET -28.5034 -0.3100689 -2.792744
            CHANNELS 3 Zrotation Xrotation Yrotation
            JOINT right_radius
            {
              OFFSET -25.15693 0.02248979 -1.271978
              CHANNELS 3 Zrotation Xrotation Yrotation
              End Site
              {
                OFFSET -15 0 0
              }
            }
          }
        }
      }
      JOINT left_manubrium
      {
        OFFSET 5.722621 16.35077 3.967754
        CHANNELS 3 Zrotation Xrotation Yrotation
        JOINT left_clavicle
        {
          OFFSET 13.16364 1.694482 -4.693211
          CHANNELS 3 Zrotation Xrotation Yrotation
          JOINT left_humerus
          {
            OFFSET 29.39168 -1.063119 -2.237045
            CHANNELS 3 Zrotation Xrotation Yrotation
            JOINT left_radius
            {
              OFFSET 24.59957 -0.9528479 0.9047498
              CHANNELS 3 Zrotation Xrotation Yrotation
              End Site
              {
                OFFSET 15 -0 -0
              }
            }
          }
        }
      }
    }
  }
}
MOTION
Frames: 9
Frame Time: 0.0416666666667
-329.0993 123.9619 -68.00629 10.81596 -6.162226 60.2904 7.257354 5.676452 -0.7187325 -0 12.29842 -0 -8.442956 1.713602 -1.445622 1.900984 -11.64752 -0.9363374 -0 24.17702 -0 -0.1092766 -4.806493 9.700835 3.724461 -4.111227 9.770163 -2.111954 19.95218 -5.888032 1.330886 18.43479 2.115079 1.414236 -15.45539 2.585371 -5.757327 -34.40952 13.29657 96.25142 7.152427 -15.67612 -0 0 30.1461 -31.08214 19.37165 17.62274 0.6044419 -26.75434 -13.91962 -92.65813 12.78922 40.1435 0 0 -29.08776 -4.236141 14.12298 20.44252
-322.9347 123.9209 -65.76724 10.74168 -6.291831 59.60559 7.257354 5.676452 -0.7187325 -0 12.29842 -0 -8.442956 1.713602 -1.445622 1.900984 -11.64752 -0.9363374 -0 24.17702 -0 -0.1092766 -4.806493 9.700835 3.724461 -4.111227 9.770163 -2.111954 19.95218 -5.888032 1.330886 18.43479 2.115079 1.414236 -15.45539 2.585371 -5.757327 -34.40952 13.29657 96.25142 7.152427 -15.67612 -0 0 30.1461 -31.08214 19.37165 17.62274 0.6044419 -26.75434 -13.91962 -92.65813 12.78922 40.1435 0 0 -29.08776 -4.236141 14.12298 20.44252
-316.7975 123.8799 -63.45379 10.66582 -6.420545 58.92043 7.257354 5.676452 -0.7187325 -0 12.29842 -0 -8.442956 1.713602 -1.445622 1.900984 -11.64752 -0.9363374 -0 24.17702 -0 -0.1092766 -4.806493 9.700835 3.724461 -4.111227 9.770163 -2.111954 19.95218 -5.888032 1.330886 18.43479 2.115079 1.414236 -15.45539 2.585371 -5.757327 -34.40952 13.29657 96.25142 7.152427 -15.67612 -0 0 30.1461 -31.08214 19.37165 17.62274 0.6044419 -26.75434 -13.91962 -92.65813 12.78922 40.1435 0 0 -29.08776 -4.236141 14.12298 20.44252
-310.6888 123.8389 -61.06628 10.5884 -6.548347 58.23493 7.257354 5.676452 -0.7187325 -0 12.29842 -0 -8.442956 1.713602 -1.445622 1.900984 -11.64752 -0.9363374 -0 24.17702 -0 -0.1092766 -4.806493 9.700835 3.724461 -4.111227 9.770163 -2.111954 19.95218 -5.888032 1.330886 18.43479 2.115079 1.414236 -15.45539 2.585371 -5.757327 -34.40952 13.29657 96.25142 7.152427 -15.67612 -0 0 30.1461 -31.08214 19.37165 17.62274 0.6044419 -26.75434 -13.91962 -92.65813 12.78922 40.1435 0 0 -29.08776 -4.236141 14.12298 20.44252
-304.6094 123.798 -58.60506 10.50943 -6.67522 57.54908 7.257354 5.676452 -0.7187325 -0 12.29842 -0 -8.442956 1.713602 -1.445622 1.900984 -11.64752 -0.9363374 -0 24.17702 -0 -0.1092766 -4.806493 9.700835 3.724461 -4.111227 9.770163 -2.111954 19.95218 -5.888032 1.330886 18.43479 2.115079 1.414236 -15.45539 2.585371 -5.757327 -34.40952 13.29657 96.25142 7.152427 -15.67612 -0 0 30.1461 -31.08214 19.37165 17.62274 0.6044419 -26.75434 -13.91962 -92.65813 12.78922 40.1435 0 0 -29.08776 -4.236141 14.12298 20.44252
-298.5603 123.757 -56.07049 10.42892 -6.801144 56.86288 7.257354 5.676452 -0.7187325 -0 12.29842 -0 -8.442956 1.713602 -1.445622 1.900984 -11.64752 -0.9363374 -0 24.17702 -0 -0.1092766 -4.806493 9.700835 3.724461 -4.111227 9.770163 -2.111954 19.95218 -5.888032 1.330886 18.43479 2.115079 1.414236 -15.45539 2.585371 -5.757327 -34.40952 13.29657 96.25142 7.152427 -15.67612 -0 0 30.1461 -31.08214 19.37165 17.62274 0.6044419 -26.75434 -13.91962 -92.65813 12.78922 40.1435 0 0 -29.08776 -4.236141 14.12298 20.44252
-292.5422 123.716 -53.46295 10.34687 -6.926102 56.17631 7.257354 5.676452 -0.7187325 -0 12.29842 -0 -8.442956 1.713602 -1.445622 1.900984 -11.64752 -0.9363374 -0 24.17702 -0 -0.1092766 -4.806493 9.700835 3.724461 -4.111227 9.770163 -2.111954 19.95218 -5.888032 1.330886 18.43479 2.115079 1.414236 -15.45539 2.585371 -5.757327 -34.40952 13.29657 96.25142 7.152427 -15.67612 -0 0 30.1461 -31.08214 19.37165 17.62274 0.6044419 -26.75434 -13.91962 -92.65813 12.78922 40.1435 0 0 -29.08776 -4.236141 14.12298 20.44252
-286.5561 123.675 -50.7828 10.26329 -7.050074 55.48939 7.257354 5.676452 -0.7187325 -0 12.29842 -0 -8.442956 1.713602 -1.445622 1.900984 -11.64752 -0.9363374 -0 24.17702 -0 -0.1092766 -4.806493 9.700835 3.724461 -4.111227 9.770163 -2.111954 19.95218 -5.888032 1.330886 18.43479 2.115079 1.414236 -15.45539 2.585371 -5.757327 -34.40952 13.29657 96.25142 7.152427 -15.67612 -0 0 30.1461 -31.08214 19.37165 17.62274 0.6044419 -26.75434 -13.91962 -92.65813 12.78922 40.1435 0 0 -29.08776 -4.236141 14.12298 20.44252
-280.6029 123.634 -48.03045 10.17821 -7.173043 54.80209 7.257354 5.676452 -0.7187325 -0 12.29842 -0 -8.442956 1.713602 -1.445622 1.900984 -11.64752 -0.9363374 -0 24.17702 -0 -0.1092766 -4.806493 9.700835 3.724461 -4.111227 9.770163 -2.111954 19.95218 -5.888032 1.330886 18.43479 2.115079 1.414236 -15.45539 2.585371 -5.757327 -34.40952 13.29657 96.25142 7.152427 -15.67612 -0 0 30.1461 -31.08214 19.37165 17.62274 0.6044419 -26.75434 -13.91962 -92.65813 12.78922 40.1435 0 0 -29.08776 -4.236141 14.12298 20.44252
